<?xml version="1.0" encoding="UTF-8"?>
<svg width="700px" height="700px" viewBox="0 0 700 700" xmlns="http://www.w3.org/2000/svg" xmlns:xlink="http://www.w3.org/1999/xlink" version="1.1">
 <!-- Generated by Pixelmator Pro 2.0.6 -->
 <g id="Objects">
  <defs>
   <radialGradient id="radial-gradient" gradientUnits="userSpaceOnUse" cx="486.53" cy="3940.46" r="127.13" fx="486.53" fy="3940.46">
    <stop offset="0" stop-color="#bcbcbc" stop-opacity="1"/>
    <stop offset="0.23" stop-color="#d2d2d2" stop-opacity="0.67"/>
    <stop offset="0.46" stop-color="#e5e5e5" stop-opacity="0.38"/>
    <stop offset="0.65" stop-color="#f3f3f3" stop-opacity="0.17"/>
    <stop offset="0.81" stop-color="#fcfcfc" stop-opacity="0.05"/>
    <stop offset="0.91" stop-color="#ffffff" stop-opacity="0"/>
   </radialGradient>
  </defs>
  <path id="bottom_shadow" d="M597.09 603.77 C597.09 610.35 513.36 615.68 410.09 615.68 306.82 615.68 223.09 610.35 223.09 603.77 223.09 597.19 306.81 591.87 410.09 591.87 513.37 591.87 597.09 597.2 597.09 603.77 Z" fill-opacity="1" fill="url(#radial-gradient)" stroke="none"/>
  <path id="base" d="M91.67 381.2 C91.67 381.2 88.34 374.75 92.09 368.72 95.84 362.69 126 311.07 126 311.07 127.712 309.533 130.115 309.029 132.3 309.75 135.81 311.06 132.96 308.75 132.96 308.75 L131.42 307.51 C131.42 307.51 128.35 304.66 130.62 299.83 132.89 295 163.2 244 163.2 244 163.2 244 166.72 239.4 170.78 239.81 174.84 240.22 171.05 238.32 171.05 238.32 L170.37 237.91 C170.37 237.91 167.67 235.75 169.97 231.55 172.27 227.35 200 180.79 200 180.79 202.177 177.752 205.256 175.478 208.8 174.29 214.48 172.53 264.16 156.56 264.16 156.56 264.16 156.56 271.16 154.94 275.53 158.32 279.9 161.7 277.15 156.56 277.15 156.56 277.182 154.566 278.494 152.818 280.4 152.23 283.78 151.01 344.56 130.71 344.56 130.71 344.56 130.71 353.22 129.35 356.47 133.55 359.72 137.75 358.91 130.03 358.91 130.03 358.91 130.03 359.18 126.11 365.91 123.8 372.64 121.49 428.44 103.23 428.44 103.23 428.44 103.23 442.25 100.52 446.17 105.53 450.09 110.54 486.64 170.23 486.64 170.23 487.853 174.419 487.663 178.889 486.1 182.96 483.53 190.13 470.54 221.8 470.54 221.8 470.54 221.8 470.13 222.89 471.08 223.02 472.03 223.15 512.23 227.22 512.23 227.22 512.23 227.22 518.72 228.22 524 236.46 529.28 244.7 561.83 298.46 561.83 298.46 561.83 298.46 564.1 303.36 562.93 305.46 562.93 305.46 566.93 304.64 570.46 309.11 573.99 313.58 608.78 369.89 608.78 369.89 608.78 369.89 611.32 375.18 607.62 379.76 603.92 384.34 554.47 441.08 554.47 441.08 554.47 441.08 551.94 443.31 544.74 443.02 544.74 443.02 545.62 450.12 542.31 453.92 539 457.72 486.73 517.19 486.73 517.19 483.831 518.482 480.652 519.019 477.49 518.75 477.49 518.75 478.56 525.95 476.13 528.67 473.7 531.39 416.07 595.15 416.07 595.15 416.07 595.15 410.23 598.95 406.14 596.81 402.05 594.67 249.45 521.13 249.45 521.13 246.284 519.529 243.488 517.284 241.24 514.54 237.45 509.94 203.34 464.46 203.34 464.46 203.34 464.46 201.34 462.02 205.34 459.32 209.34 456.62 203.99 457.96 203.99 457.96 203.99 457.96 200.6 459.45 199.12 458.1 197.64 456.75 181.38 436.71 181.38 436.71 L149.17 443.48 C149.17 443.48 142.4 443.89 140.37 441.99 138.34 440.09 91.67 381.2 91.67 381.2 Z" fill="#1a171b" fill-opacity="1" stroke="none"/>
  <g id="reflets">
   <defs>
    <linearGradient id="linear-gradient" gradientUnits="userSpaceOnUse" x1="371.76" y1="272.23" x2="367.06" y2="270.14">
     <stop offset="0" stop-color="#000000" stop-opacity="1"/>
     <stop offset="0.09" stop-color="#040404" stop-opacity="1"/>
     <stop offset="0.18" stop-color="#101010" stop-opacity="1"/>
     <stop offset="0.27" stop-color="#242424" stop-opacity="1"/>
     <stop offset="0.36" stop-color="#404040" stop-opacity="1"/>
     <stop offset="0.45" stop-color="#646464" stop-opacity="1"/>
     <stop offset="0.51" stop-color="#7e7e7e" stop-opacity="1"/>
     <stop offset="0.56" stop-color="#626262" stop-opacity="1"/>
     <stop offset="0.65" stop-color="#3f3f3f" stop-opacity="1"/>
     <stop offset="0.73" stop-color="#232323" stop-opacity="1"/>
     <stop offset="0.82" stop-color="#101010" stop-opacity="1"/>
     <stop offset="0.91" stop-color="#040404" stop-opacity="1"/>
     <stop offset="1" stop-color="#000000" stop-opacity="1"/>
    </linearGradient>
   </defs>
   <path id="Traçado" d="M367.09 270 C361.27 284.74 357.62 297.12 358.94 297.64 360.26 298.16 366.06 286.64 371.88 271.89 377.7 257.14 381.35 244.78 380.03 244.26 378.71 243.74 372.91 255.25 367.09 270 Z" fill-opacity="1" fill="url(#linear-gradient)" stroke="none"/>
   <defs>
    <linearGradient id="linear-gradient-1" gradientUnits="userSpaceOnUse" x1="417.87" y1="471.15" x2="413.17" y2="469.06">
     <stop offset="0" stop-color="#000000" stop-opacity="1"/>
     <stop offset="0.09" stop-color="#040404" stop-opacity="1"/>
     <stop offset="0.18" stop-color="#101010" stop-opacity="1"/>
     <stop offset="0.27" stop-color="#242424" stop-opacity="1"/>
     <stop offset="0.36" stop-color="#404040" stop-opacity="1"/>
     <stop offset="0.45" stop-color="#646464" stop-opacity="1"/>
     <stop offset="0.51" stop-color="#7e7e7e" stop-opacity="1"/>
     <stop offset="0.56" stop-color="#626262" stop-opacity="1"/>
     <stop offset="0.65" stop-color="#3f3f3f" stop-opacity="1"/>
     <stop offset="0.73" stop-color="#232323" stop-opacity="1"/>
     <stop offset="0.82" stop-color="#101010" stop-opacity="1"/>
     <stop offset="0.91" stop-color="#040404" stop-opacity="1"/>
     <stop offset="1" stop-color="#000000" stop-opacity="1"/>
    </linearGradient>
   </defs>
   <path id="Traçado-1" d="M393.82 496.16 C381.09 509.94 371.63 521.9 372.67 522.86 373.71 523.82 384.87 513.43 397.6 499.64 410.33 485.85 419.79 473.9 418.74 472.94 417.69 471.98 406.54 482.37 393.82 496.16 Z" fill-opacity="1" fill="url(#linear-gradient-1)" stroke="none"/>
   <defs>
    <linearGradient id="linear-gradient-2" gradientUnits="userSpaceOnUse" x1="300.99" y1="411.22" x2="297.63" y2="409.73">
     <stop offset="0" stop-color="#000000" stop-opacity="1"/>
     <stop offset="0.09" stop-color="#040404" stop-opacity="1"/>
     <stop offset="0.18" stop-color="#101010" stop-opacity="1"/>
     <stop offset="0.27" stop-color="#242424" stop-opacity="1"/>
     <stop offset="0.36" stop-color="#404040" stop-opacity="1"/>
     <stop offset="0.45" stop-color="#646464" stop-opacity="1"/>
     <stop offset="0.51" stop-color="#7e7e7e" stop-opacity="1"/>
     <stop offset="0.56" stop-color="#626262" stop-opacity="1"/>
     <stop offset="0.65" stop-color="#3f3f3f" stop-opacity="1"/>
     <stop offset="0.73" stop-color="#232323" stop-opacity="1"/>
     <stop offset="0.82" stop-color="#101010" stop-opacity="1"/>
     <stop offset="0.91" stop-color="#040404" stop-opacity="1"/>
     <stop offset="1" stop-color="#000000" stop-opacity="1"/>
    </linearGradient>
   </defs>
   <path id="Traçado-2" d="M278.88 450 C291.34 455 301.74 458.3 302.12 457.35 302.5 456.4 292.71 451.59 280.25 446.59 267.79 441.59 257.39 438.3 257.01 439.24 256.63 440.18 266.42 445 278.88 450 Z" fill-opacity="1" fill="url(#linear-gradient-2)" stroke="none"/>
   <defs>
    <linearGradient id="linear-gradient-3" gradientUnits="userSpaceOnUse" x1="452.64" y1="387.27" x2="447.94" y2="385.18">
     <stop offset="0" stop-color="#000000" stop-opacity="1"/>
     <stop offset="0.09" stop-color="#040404" stop-opacity="1"/>
     <stop offset="0.18" stop-color="#101010" stop-opacity="1"/>
     <stop offset="0.27" stop-color="#242424" stop-opacity="1"/>
     <stop offset="0.36" stop-color="#404040" stop-opacity="1"/>
     <stop offset="0.45" stop-color="#646464" stop-opacity="1"/>
     <stop offset="0.51" stop-color="#7e7e7e" stop-opacity="1"/>
     <stop offset="0.56" stop-color="#626262" stop-opacity="1"/>
     <stop offset="0.65" stop-color="#3f3f3f" stop-opacity="1"/>
     <stop offset="0.73" stop-color="#232323" stop-opacity="1"/>
     <stop offset="0.82" stop-color="#101010" stop-opacity="1"/>
     <stop offset="0.91" stop-color="#040404" stop-opacity="1"/>
     <stop offset="1" stop-color="#000000" stop-opacity="1"/>
    </linearGradient>
   </defs>
   <path id="Traçado-3" d="M465 415.6 C452.28 429.39 442.81 441.34 443.86 442.31 444.91 443.28 456.06 432.87 468.78 419.09 481.5 405.31 490.97 393.35 489.93 392.38 488.89 391.41 477.68 401.81 465 415.6 Z" fill-opacity="1" fill="url(#linear-gradient-3)" stroke="none"/>
   <defs>
    <linearGradient id="linear-gradient-4" gradientUnits="userSpaceOnUse" x1="488.33" y1="306.63" x2="483.63" y2="304.54">
     <stop offset="0" stop-color="#000000" stop-opacity="1"/>
     <stop offset="0.09" stop-color="#040404" stop-opacity="1"/>
     <stop offset="0.18" stop-color="#101010" stop-opacity="1"/>
     <stop offset="0.27" stop-color="#242424" stop-opacity="1"/>
     <stop offset="0.36" stop-color="#404040" stop-opacity="1"/>
     <stop offset="0.45" stop-color="#646464" stop-opacity="1"/>
     <stop offset="0.51" stop-color="#7e7e7e" stop-opacity="1"/>
     <stop offset="0.56" stop-color="#626262" stop-opacity="1"/>
     <stop offset="0.65" stop-color="#3f3f3f" stop-opacity="1"/>
     <stop offset="0.73" stop-color="#232323" stop-opacity="1"/>
     <stop offset="0.82" stop-color="#101010" stop-opacity="1"/>
     <stop offset="0.91" stop-color="#040404" stop-opacity="1"/>
     <stop offset="1" stop-color="#000000" stop-opacity="1"/>
    </linearGradient>
   </defs>
   <path id="Traçado-4" d="M535.59 338.76 C522.87 352.55 513.4 364.51 514.45 365.47 515.5 366.43 526.65 356.04 539.37 342.25 552.09 328.46 561.56 316.51 560.52 315.55 559.48 314.59 548.32 325 535.59 338.76 Z" fill-opacity="1" fill="url(#linear-gradient-4)" stroke="none"/>
   <defs>
    <linearGradient id="linear-gradient-5" gradientUnits="userSpaceOnUse" x1="413.28" y1="254.64" x2="408.58" y2="252.55">
     <stop offset="0" stop-color="#000000" stop-opacity="1"/>
     <stop offset="0.09" stop-color="#040404" stop-opacity="1"/>
     <stop offset="0.18" stop-color="#101010" stop-opacity="1"/>
     <stop offset="0.27" stop-color="#242424" stop-opacity="1"/>
     <stop offset="0.36" stop-color="#404040" stop-opacity="1"/>
     <stop offset="0.45" stop-color="#646464" stop-opacity="1"/>
     <stop offset="0.51" stop-color="#7e7e7e" stop-opacity="1"/>
     <stop offset="0.56" stop-color="#626262" stop-opacity="1"/>
     <stop offset="0.65" stop-color="#3f3f3f" stop-opacity="1"/>
     <stop offset="0.73" stop-color="#232323" stop-opacity="1"/>
     <stop offset="0.82" stop-color="#101010" stop-opacity="1"/>
     <stop offset="0.91" stop-color="#040404" stop-opacity="1"/>
     <stop offset="1" stop-color="#000000" stop-opacity="1"/>
    </linearGradient>
   </defs>
   <path id="Traçado-5" d="M483.3 263.17 C470.57 276.95 461.1 288.91 462.15 289.87 463.2 290.83 474.35 280.44 487.08 266.65 499.81 252.86 509.27 240.91 508.22 239.95 507.17 238.99 496 249.38 483.3 263.17 Z" fill-opacity="1" fill="url(#linear-gradient-5)" stroke="none"/>
   <defs>
    <linearGradient id="linear-gradient-6" gradientUnits="userSpaceOnUse" x1="400.55" y1="199.57" x2="395.85" y2="197.48">
     <stop offset="0" stop-color="#000000" stop-opacity="1"/>
     <stop offset="0.09" stop-color="#040404" stop-opacity="1"/>
     <stop offset="0.18" stop-color="#101010" stop-opacity="1"/>
     <stop offset="0.27" stop-color="#242424" stop-opacity="1"/>
     <stop offset="0.36" stop-color="#404040" stop-opacity="1"/>
     <stop offset="0.45" stop-color="#646464" stop-opacity="1"/>
     <stop offset="0.51" stop-color="#7e7e7e" stop-opacity="1"/>
     <stop offset="0.56" stop-color="#626262" stop-opacity="1"/>
     <stop offset="0.65" stop-color="#3f3f3f" stop-opacity="1"/>
     <stop offset="0.73" stop-color="#232323" stop-opacity="1"/>
     <stop offset="0.82" stop-color="#101010" stop-opacity="1"/>
     <stop offset="0.91" stop-color="#040404" stop-opacity="1"/>
     <stop offset="1" stop-color="#000000" stop-opacity="1"/>
    </linearGradient>
   </defs>
   <path id="Traçado-6" d="M395.45 197.76 C389.37 212.39 385.5 224.7 386.82 225.24 388.14 225.78 394.12 214.37 400.2 199.73 406.28 185.09 410.14 172.79 408.83 172.24 407.52 171.69 401.53 183.12 395.45 197.76 Z" fill-opacity="1" fill="url(#linear-gradient-6)" stroke="none"/>
   <defs>
    <linearGradient id="linear-gradient-7" gradientUnits="userSpaceOnUse" x1="430.85" y1="133.37" x2="426.15" y2="131.28">
     <stop offset="0" stop-color="#000000" stop-opacity="1"/>
     <stop offset="0.09" stop-color="#040404" stop-opacity="1"/>
     <stop offset="0.18" stop-color="#101010" stop-opacity="1"/>
     <stop offset="0.27" stop-color="#242424" stop-opacity="1"/>
     <stop offset="0.36" stop-color="#404040" stop-opacity="1"/>
     <stop offset="0.45" stop-color="#646464" stop-opacity="1"/>
     <stop offset="0.51" stop-color="#7e7e7e" stop-opacity="1"/>
     <stop offset="0.56" stop-color="#626262" stop-opacity="1"/>
     <stop offset="0.65" stop-color="#3f3f3f" stop-opacity="1"/>
     <stop offset="0.73" stop-color="#232323" stop-opacity="1"/>
     <stop offset="0.82" stop-color="#101010" stop-opacity="1"/>
     <stop offset="0.91" stop-color="#040404" stop-opacity="1"/>
     <stop offset="1" stop-color="#000000" stop-opacity="1"/>
    </linearGradient>
   </defs>
   <path id="Traçado-7" d="M424.08 130.82 C418 145.45 414.13 157.76 415.44 158.3 416.75 158.84 422.75 147.42 428.83 132.79 434.91 118.16 438.77 105.85 437.46 105.3 436.15 104.75 430.16 116.18 424.08 130.82 Z" fill-opacity="1" fill="url(#linear-gradient-7)" stroke="none"/>
  </g>
  <g id="cases">
   <path id="Traçado-8" d="M201.46 182.69 L178.78 219.83 C178.78 219.83 175.29 225.67 182.88 223.83 190.47 221.99 233 209.51 233 209.51 236.169 208.44 238.973 206.499 241.09 203.91 244.44 199.68 264.72 162.25 264.72 162.25 264.72 162.25 267.33 157.77 260.99 159.51 254.65 161.25 210.66 175.36 210.66 175.36 210.66 175.36 204.56 177.59 201.46 182.69 Z" fill="#ffed00" fill-opacity="1" stroke="none"/>
   <path id="Traçado-9" d="M275 160.32 L257.37 197 C257.37 197 253.89 202.85 261.47 201 269.05 199.15 312.27 186.16 312.27 186.16 315.437 185.091 318.238 183.15 320.35 180.56 323.71 176.33 339.53 139.17 339.53 139.17 339.53 139.17 342.14 134.69 335.8 136.43 329.46 138.17 284.19 153 284.19 153 280.313 154.193 277.03 156.808 275 160.32 Z" fill="#009ee0" fill-opacity="1" stroke="none"/>
   <path id="Traçado-10" d="M163.12 246.93 L139.51 288.49 C139.51 288.49 135.8 295 143.76 293 151.72 291 195.76 279 195.76 279 199.135 277.811 202.093 275.672 204.28 272.84 207.83 268.16 229.21 226.01 229.21 226.01 229.21 226.01 231.99 221.01 225.34 222.92 218.69 224.83 172.79 238.84 172.79 238.84 168.702 240.292 165.271 243.163 163.12 246.93 Z" fill="#009ee0" fill-opacity="1" stroke="none"/>
   <path id="Traçado-11" d="M127.19 314.45 L100.96 360.45 C100.96 360.45 97.25 366.93 105.21 364.92 113.17 362.91 157.21 351.74 157.21 351.74 160.585 350.551 163.543 348.412 165.73 345.58 169.28 340.9 191.73 296.04 191.73 296.04 191.73 296.04 194.5 291.04 187.85 292.95 181.2 294.86 136.85 306.36 136.85 306.36 132.81 307.891 129.406 310.741 127.19 314.45 Z" fill="#e2001a" fill-opacity="1" stroke="none"/>
   <path id="Traçado-12" d="M206.07 292.51 L183.47 340.36 C183.47 340.36 179.76 346.84 187.71 344.84 195.66 342.84 246.14 330.52 246.14 330.52 249.513 329.339 252.47 327.202 254.65 324.37 258.21 319.69 278.79 272.58 278.79 272.58 278.79 272.58 281.57 267.58 274.92 269.5 268.27 271.42 215.76 284.42 215.76 284.42 211.632 285.81 208.175 288.697 206.07 292.51 Z" fill="#ffed00" fill-opacity="1" stroke="none"/>
   <path id="Traçado-13" d="M243.24 222.75 L220.24 266.61 C220.24 266.61 216.54 273.09 224.49 271.08 232.44 269.07 280.37 257.32 280.37 257.32 283.743 256.138 286.7 254.002 288.88 251.17 292.44 246.49 311.88 201.36 311.88 201.36 311.88 201.36 314.66 196.36 308.01 198.27 301.36 200.18 252.89 214.67 252.89 214.67 248.779 216.067 245.337 218.948 243.24 222.75 Z" fill="#ec7413" fill-opacity="1" stroke="none"/>
   <path id="Traçado-14" d="M296 267.31 L273.81 315.78 C273.81 315.78 270.11 322.26 278.06 320.26 286.01 318.26 344.43 303.36 344.43 303.36 347.803 302.178 350.76 300.042 352.94 297.21 356.5 292.53 373.51 243.9 373.51 243.9 373.51 243.9 375.37 239.21 369.64 240.81 362.99 242.67 305.7 259.22 305.7 259.22 301.448 260.386 297.91 263.337 296 267.31 Z" fill="#ffffff" fill-opacity="1" stroke="none"/>
   <path id="Traçado-15" d="M326.92 197.8 L308.22 240.26 C308.22 240.26 304.52 246.74 312.47 244.73 320.42 242.72 371.36 227.84 371.36 227.84 374.732 226.652 377.688 224.513 379.87 221.68 383.43 217 400.36 173.92 400.36 173.92 400.36 173.92 402.21 169.24 396.48 170.84 389.83 172.69 336.62 189.72 336.62 189.72 332.368 190.879 328.828 193.827 326.92 197.8 Z" fill="#6ab023" fill-opacity="1" stroke="none"/>
   <path id="Traçado-16" d="M357.9 133.42 L342.17 169.88 C342.17 169.88 338.47 176.36 346.42 174.35 354.37 172.34 402 157.46 402 157.46 405.372 156.272 408.328 154.133 410.51 151.3 414.07 146.62 428.19 110.09 428.19 110.09 428.19 110.09 430.04 105.4 424.32 107 417.66 108.86 367.61 125.33 367.61 125.33 363.353 126.491 359.81 129.443 357.9 133.42 Z" fill="#e2001a" fill-opacity="1" stroke="none"/>
   <path id="Traçado-17" d="M514.71 243.77 C514.71 243.77 519.32 239.32 522.71 244.19 525.28 247.92 556.39 298.35 556.39 298.35 556.39 298.35 559.54 303.59 556.18 307.15 552.82 310.71 510.18 360.52 510.18 360.52 509.375 361.218 508.325 361.567 507.263 361.488 506.2 361.409 505.213 360.909 504.52 360.1 501.79 357.17 465.52 305.4 465.52 305.4 465.52 305.4 462.8 300.57 466.36 296.8 469.92 293.03 514.71 243.77 514.71 243.77 Z" fill="#ec7413" fill-opacity="1" stroke="none"/>
   <path id="Traçado-18" d="M564.73 318.51 C564.73 318.51 569.35 314.06 572.73 318.93 575.3 322.67 604.73 371.26 604.73 371.26 604.73 371.26 607.87 376.5 604.52 380.06 601.17 383.62 557.86 434 557.86 434 557.055 434.698 556.005 435.047 554.943 434.968 553.88 434.889 552.893 434.389 552.2 433.58 549.48 430.65 516.04 379.58 516.04 379.58 516.04 379.58 513.32 374.76 516.88 370.99 520.44 367.22 564.73 318.51 564.73 318.51 Z" fill="#6ab023" fill-opacity="1" stroke="none"/>
   <path id="Traçado-19" d="M495.39 395.52 C495.39 395.52 499.85 390.91 503.39 395.67 506.08 399.32 537.62 445.35 537.62 445.35 537.62 445.35 540.94 450.48 537.71 454.16 L489.44 509.07 C488.66 509.796 487.624 510.181 486.559 510.139 485.495 510.098 484.491 509.634 483.77 508.85 480.94 506.01 446.89 458.69 446.89 458.69 446.89 458.69 444.01 453.96 447.44 450.07 450.87 446.18 495.39 395.52 495.39 395.52 Z" fill="#009ee0" fill-opacity="1" stroke="none"/>
   <path id="Traçado-20" d="M427.54 470.5 C427.54 470.5 431.99 465.89 435.54 470.64 438.24 474.29 471.99 519.64 471.99 519.64 471.99 519.64 475.32 524.77 472.09 528.45 468.86 532.13 420.84 585.65 420.84 585.65 420.059 586.375 419.022 586.758 417.957 586.715 416.893 586.671 415.89 586.205 415.17 585.42 412.34 582.58 375.71 536.53 375.71 536.53 375.71 536.53 372.83 531.81 376.26 527.92 379.69 524.03 427.54 470.5 427.54 470.5 Z" fill="#ffed00" fill-opacity="1" stroke="none"/>
   <path id="Traçado-21" d="M371.55 400.21 C371.55 400.21 376.01 395.6 379.55 400.36 382.25 404.01 418.66 452.23 418.66 452.23 418.66 452.23 421.98 457.37 418.75 461.04 415.52 464.71 365.84 518.29 365.84 518.29 365.06 519.016 364.024 519.401 362.959 519.359 361.895 519.318 360.891 518.854 360.17 518.07 357.34 515.23 318.29 465.25 318.29 465.25 318.29 465.25 315.4 460.52 318.83 456.63 322.26 452.74 371.55 400.21 371.55 400.21 Z" fill="#6ab023" fill-opacity="1" stroke="none"/>
   <path id="Traçado-22" d="M442.86 110.44 C442.86 110.44 445.03 106.24 447.59 109.86 449.43 112.47 484 168.74 484 168.74 485.623 172.27 485.863 176.282 484.67 179.98 482.67 186.07 467.21 221.26 467.21 221.26 467.21 221.26 464.91 224.51 461.8 220.04 458.69 215.57 425 160.76 425 160.76 423.78 158.115 423.683 155.088 424.73 152.37 426.47 147.76 442.86 110.44 442.86 110.44 Z" fill="#ffed00" fill-opacity="1" stroke="none"/>
   <path id="Traçado-23" d="M415.56 173.46 C415.56 173.46 417.73 169.27 420.28 172.89 422.13 175.5 459.9 233.44 459.9 233.44 461.529 236.969 461.771 240.981 460.58 244.68 458.58 250.77 442.04 291.38 442.04 291.38 442.04 291.38 439.74 294.63 436.62 290.16 433.5 285.69 396.56 231.41 396.56 231.41 395.34 228.765 395.243 225.738 396.29 223.02 398.05 218.42 415.56 173.46 415.56 173.46 Z" fill="#ec7413" fill-opacity="1" stroke="none"/>
   <path id="Traçado-24" d="M385.55 245.47 C385.55 245.47 387.73 241.28 390.28 244.9 392.12 247.51 431.21 305.45 431.21 305.45 432.839 308.979 433.081 312.991 431.89 316.69 429.89 322.78 410.09 368.26 410.09 368.26 410.09 368.26 407.79 371.51 404.68 367.04 401.57 362.57 364.07 308.3 364.07 308.3 362.85 305.651 362.752 302.622 363.8 299.9 365.56 295.3 385.55 245.47 385.55 245.47 Z" fill="#009ee0" fill-opacity="1" stroke="none"/>
   <path id="Traçado-25" d="M274.15 339.8 C274.15 339.8 270.51 334.39 276.71 332.85 281.55 331.65 341.94 316.26 341.94 316.26 341.94 316.26 347.87 314.61 349.74 317.26 351.33 319.51 390.02 375.55 390.02 375.55 390.02 375.55 396.42 384.11 389.16 385.9 382.89 387.45 327.05 399.37 327.05 399.37 327.05 399.37 320.44 401.16 317.83 397.95 315.55 395.14 274.15 339.8 274.15 339.8 Z" fill="#ffed00" fill-opacity="1" stroke="none"/>
   <path id="Traçado-26" d="M185.88 362.93 C185.88 362.93 182.42 357.93 188.3 356.48 192.9 355.36 248.92 342.4 248.92 342.4 248.92 342.4 254.56 340.87 256.33 343.32 257.84 345.41 298.09 397.48 298.09 397.48 298.09 397.48 304.17 405.48 297.28 407.1 291.28 408.54 238.82 419.98 238.82 419.98 238.82 419.98 232.54 421.64 230.06 418.66 227.9 416.05 185.88 362.93 185.88 362.93 Z" fill="#6ab023" fill-opacity="1" stroke="none"/>
   <path id="Traçado-27" d="M101.65 382.49 C101.65 382.49 98.2 377.49 104.08 376.04 108.67 374.92 160.32 361.7 160.32 361.7 160.32 361.7 165.95 360.17 167.73 362.63 169.24 364.71 209.48 417.33 209.48 417.33 209.48 417.33 215.56 425.28 208.67 426.94 202.67 428.39 154.31 439.19 154.31 439.19 154.31 439.19 148.03 440.86 145.56 437.87 143.39 435.27 101.65 382.49 101.65 382.49 Z" fill="#ec7413" fill-opacity="1" stroke="none"/>
   <path id="Traçado-28" d="M262.18 446.7 L298.24 462.06 C298.24 462.06 303.24 464.3 305.66 467.58 308.08 470.86 346.72 519.17 346.72 519.17 346.72 519.17 351.49 525.44 344.65 522.45 338.99 519.96 303.76 503.12 303.76 503.12 301.529 502.109 299.576 500.572 298.07 498.64 L259.07 449.29 C259.07 449.29 255.25 443.57 262.18 446.7 Z" fill="#e2001a" fill-opacity="1" stroke="none"/>
   <path id="Traçado-29" d="M319.21 520.7 L355.27 536.05 C355.27 536.05 360.27 538.3 362.69 541.57 365.11 544.84 400.31 587.78 400.31 587.78 400.31 587.78 405.08 594.05 398.24 591.06 392.57 588.58 356.24 571.06 356.24 571.06 354.005 570.051 352.051 568.509 350.55 566.57 347.96 563.29 316.15 523.26 316.15 523.26 316.15 523.26 312.28 517.57 319.21 520.7 Z" fill="#009ee0" fill-opacity="1" stroke="none"/>
   <path id="Traçado-30" d="M263 492.42 L299.06 510.62 C299.06 510.62 304.06 512.86 306.47 516.14 308.88 519.42 337.89 557.66 337.89 557.66 337.89 557.66 342.66 563.94 335.82 560.94 330.16 558.46 299.82 543.76 299.82 543.76 297.587 542.747 295.634 541.206 294.13 539.27 291.51 536 259.89 495 259.89 495 259.89 495 256.06 489.29 263 492.42 Z" fill="#ffffff" fill-opacity="1" stroke="none"/>
   <path id="Traçado-31" d="M214.07 469.59 L244 484.25 C244 484.25 249 486.49 251.42 489.77 253.84 493.05 282.32 530.77 282.32 530.77 282.32 530.77 287.08 537.04 280.25 534.05 274.58 531.57 250.12 519.68 250.12 519.68 247.885 518.676 245.931 517.137 244.43 515.2 241.84 511.92 210.98 472.2 210.98 472.2 210.98 472.2 207.14 466.46 214.07 469.59 Z" fill="#ffed00" fill-opacity="1" stroke="none"/>
   <path id="Traçado-32" d="M400.14 393 L431.78 436.21 C431.78 436.21 435.85 441.37 440.99 435.74 445.49 430.8 488.91 381.91 488.91 381.91 488.91 381.91 492.91 377.42 488.91 371.75 484.91 366.08 453.74 320.05 453.74 320.05 453.74 320.05 449.2 314.34 444.53 318.63 440.71 322.13 430.6 332.09 430.6 332.09 429.94 333.057 429.403 334.101 429 335.2 428.52 336.62 415.77 370.61 415.77 370.61 415.77 370.61 411.24 384.78 400.14 393 Z" fill="#ffffff" fill-opacity="1" stroke="none"/>
   <path id="Traçado-33" d="M240.66 470.75 C243.007 473.797 245.985 476.301 249.39 478.09 254.87 480.87 285.99 495.64 285.99 495.64 285.99 495.64 292.49 498.43 287.57 492.48 282.65 486.53 248.84 443.72 248.84 443.72 248.84 443.72 245.84 439.54 242.43 438.06 239.02 436.58 222.74 429.79 222.74 429.79 220.758 429.163 218.653 429.036 216.61 429.42 214.444 429.855 212.303 430.413 210.2 431.09 210.2 431.09 208.72 431.93 209.36 432.67 210 433.41 240.66 470.75 240.66 470.75 Z" fill="#6ab023" fill-opacity="1" stroke="none"/>
   <path id="Traçado-34" d="M197.32 454.44 C199.253 456.565 201.549 458.329 204.1 459.65 207.81 461.36 228.51 470.21 228.51 470.21 228.51 470.21 236.12 472.67 231.94 467.53 227.76 462.39 205.41 434.14 205.41 434.14 205.41 434.14 203.55 432.14 201.98 432.5 200.41 432.86 184.77 436.06 184.77 436.06 184.77 436.06 183.26 436.82 183.77 437.64 184.28 438.46 197.32 454.44 197.32 454.44 Z" fill="#009ee0" fill-opacity="1" stroke="none"/>
  </g>
 </g>
</svg>
