<svg xmlns="http://www.w3.org/2000/svg" xmlns:xlink="http://www.w3.org/1999/xlink" viewBox="0 0 700 700"><defs><radialGradient id="radial-gradient" cx="350" cy="350" r="873.8" gradientUnits="userSpaceOnUse"><stop offset="0" stop-color="#fff"/><stop offset="0.33" stop-color="#f6f7f7"/><stop offset="0.85" stop-color="#dfe0e1"/><stop offset="1" stop-color="#d7d8da"/></radialGradient><radialGradient id="radial-gradient-2" cx="486.53" cy="3940.46" r="127.13" gradientTransform="translate(-305.4 234.55) scale(1.47 0.09)" gradientUnits="userSpaceOnUse"><stop offset="0" stop-color="#bcbcbc"/><stop offset="0.23" stop-color="#d2d2d2" stop-opacity="0.67"/><stop offset="0.46" stop-color="#e5e5e5" stop-opacity="0.38"/><stop offset="0.65" stop-color="#f3f3f3" stop-opacity="0.17"/><stop offset="0.81" stop-color="#fcfcfc" stop-opacity="0.05"/><stop offset="0.91" stop-color="#fff" stop-opacity="0"/></radialGradient><linearGradient id="linear-gradient" x1="371.76" y1="272.23" x2="367.06" y2="270.14" gradientTransform="translate(-11.2 15.81) rotate(-2.45)" gradientUnits="userSpaceOnUse"><stop offset="0"/><stop offset="0.09" stop-color="#040404"/><stop offset="0.18" stop-color="#101010"/><stop offset="0.27" stop-color="#242424"/><stop offset="0.36" stop-color="#404040"/><stop offset="0.45" stop-color="#646464"/><stop offset="0.51" stop-color="#7e7e7e"/><stop offset="0.56" stop-color="#626262"/><stop offset="0.65" stop-color="#3f3f3f"/><stop offset="0.73" stop-color="#232323"/><stop offset="0.82" stop-color="#101010"/><stop offset="0.91" stop-color="#040404"/><stop offset="1"/></linearGradient><linearGradient id="linear-gradient-2" x1="417.87" y1="471.15" x2="413.17" y2="469.06" gradientTransform="matrix(1, 0.27, -0.43, 1.07, 185.28, -115.75)" xlink:href="#linear-gradient"/><linearGradient id="linear-gradient-3" x1="300.99" y1="411.22" x2="297.63" y2="409.73" gradientTransform="matrix(-0.11, -1.03, 1.16, 0.03, -162.7, 745.34)" xlink:href="#linear-gradient"/><linearGradient id="linear-gradient-4" x1="452.64" y1="387.27" x2="447.94" y2="385.18" gradientTransform="matrix(1, 0.27, -0.43, 1.07, 185.28, -115.75)" xlink:href="#linear-gradient"/><linearGradient id="linear-gradient-5" x1="488.33" y1="306.63" x2="483.63" y2="304.54" gradientTransform="matrix(1, 0.27, -0.43, 1.07, 185.28, -115.75)" xlink:href="#linear-gradient"/><linearGradient id="linear-gradient-6" x1="413.28" y1="254.64" x2="408.58" y2="252.55" gradientTransform="matrix(1, 0.27, -0.43, 1.07, 185.28, -115.75)" xlink:href="#linear-gradient"/><linearGradient id="linear-gradient-7" x1="400.55" y1="199.57" x2="395.85" y2="197.48" gradientTransform="translate(-5.26 10.31) rotate(-1.44)" xlink:href="#linear-gradient"/><linearGradient id="linear-gradient-8" x1="430.85" y1="133.37" x2="426.15" y2="131.28" gradientTransform="translate(-5.26 10.31) rotate(-1.44)" xlink:href="#linear-gradient"/></defs><title>rubik&amp;apos;s-cube</title><g id="Background"><rect width="700" height="700" fill="url(#radial-gradient)"/></g><g id="Objects"><path id="bottom_shadow" data-name="bottom shadow" d="M597.09,603.77c0,6.58-83.73,11.91-187,11.91s-187-5.33-187-11.91,83.72-11.9,187-11.9S597.09,597.2,597.09,603.77Z" opacity="0.6" fill="url(#radial-gradient-2)"/><path id="base" d="M91.67,381.2s-3.33-6.45.42-12.48S126,311.07,126,311.07a6.42,6.42,0,0,1,6.3-1.32c3.51,1.31.66-1,.66-1l-1.54-1.24s-3.07-2.85-.8-7.68S163.2,244,163.2,244s3.52-4.6,7.58-4.19.27-1.49.27-1.49l-.68-.41s-2.7-2.16-.4-6.36S200,180.79,200,180.79a17.78,17.78,0,0,1,8.8-6.5c5.68-1.76,55.36-17.73,55.36-17.73s7-1.62,11.37,1.76,1.62-1.76,1.62-1.76a4.61,4.61,0,0,1,3.25-4.33c3.38-1.22,64.16-21.52,64.16-21.52s8.66-1.36,11.91,2.84,2.44-3.52,2.44-3.52.27-3.92,7-6.23,62.53-20.57,62.53-20.57,13.81-2.71,17.73,2.3,40.47,64.7,40.47,64.7a20,20,0,0,1-.54,12.73c-2.57,7.17-15.56,38.84-15.56,38.84s-.41,1.09.54,1.22,41.15,4.2,41.15,4.2,6.49,1,11.77,9.24,37.83,62,37.83,62,2.27,4.9,1.1,7c0,0,4-.82,7.53,3.65s38.32,60.78,38.32,60.78,2.54,5.29-1.16,9.87-53.15,61.32-53.15,61.32-2.53,2.23-9.73,1.94c0,0,.88,7.1-2.43,10.9s-55.58,63.27-55.58,63.27a18.78,18.78,0,0,1-9.24,1.56s1.07,7.2-1.36,9.92-60.06,66.48-60.06,66.48-5.84,3.8-9.93,1.66-156.69-75.68-156.69-75.68a25.48,25.48,0,0,1-8.21-6.59c-3.79-4.6-37.9-50.08-37.9-50.08s-2-2.44,2-5.14-1.35-1.36-1.35-1.36-3.39,1.49-4.87.14-17.74-21.39-17.74-21.39l-32.21,6.77s-6.77.41-8.8-1.49S91.67,381.2,91.67,381.2Z" fill="#1a171b"/><g id="reflets"><path d="M367.09,270c-5.82,14.74-9.47,27.12-8.15,27.64s7.12-11,12.94-25.75,9.47-27.11,8.15-27.63S372.91,255.25,367.09,270Z" opacity="0.3" fill="url(#linear-gradient)"/><path d="M393.82,496.16c-12.73,13.78-22.19,25.74-21.15,26.7s12.2-9.43,24.93-23.22,22.19-25.74,21.14-26.7S406.54,482.37,393.82,496.16Z" opacity="0.3" fill="url(#linear-gradient-2)"/><path d="M278.88,450c12.46,5,22.86,8.3,23.24,7.35s-9.41-5.76-21.87-10.76-22.86-8.29-23.24-7.35S266.42,445,278.88,450Z" opacity="0.3" fill="url(#linear-gradient-3)"/><path d="M465,415.6c-12.72,13.79-22.19,25.74-21.14,26.71s12.2-9.44,24.92-23.22,22.19-25.74,21.15-26.71S477.68,401.81,465,415.6Z" opacity="0.3" fill="url(#linear-gradient-4)"/><path d="M535.59,338.76c-12.72,13.79-22.19,25.75-21.14,26.71s12.2-9.43,24.92-23.22,22.19-25.74,21.15-26.7S548.32,325,535.59,338.76Z" opacity="0.3" fill="url(#linear-gradient-5)"/><path d="M483.3,263.17c-12.73,13.78-22.2,25.74-21.15,26.7s12.2-9.43,24.93-23.22,22.19-25.74,21.14-26.7S496,249.38,483.3,263.17Z" opacity="0.3" fill="url(#linear-gradient-6)"/><path d="M395.45,197.76c-6.08,14.63-9.95,26.94-8.63,27.48s7.3-10.87,13.38-25.51,9.94-26.94,8.63-27.49S401.53,183.12,395.45,197.76Z" opacity="0.3" fill="url(#linear-gradient-7)"/><path d="M424.08,130.82c-6.08,14.63-9.95,26.94-8.64,27.48s7.31-10.88,13.39-25.51,9.94-26.94,8.63-27.49S430.16,116.18,424.08,130.82Z" opacity="0.3" fill="url(#linear-gradient-8)"/></g><g id="cases"><path d="M201.46,182.69l-22.68,37.14s-3.49,5.84,4.1,4S233,209.51,233,209.51a17.81,17.81,0,0,0,8.09-5.6c3.35-4.23,23.63-41.66,23.63-41.66s2.61-4.48-3.73-2.74-50.33,15.85-50.33,15.85S204.56,177.59,201.46,182.69Z" fill="#ffed00"/><path d="M275,160.32,257.37,197s-3.48,5.85,4.1,4,50.8-14.84,50.8-14.84a17.75,17.75,0,0,0,8.08-5.6c3.36-4.23,19.18-41.39,19.18-41.39s2.61-4.48-3.73-2.74S284.19,153,284.19,153A16.08,16.08,0,0,0,275,160.32Z" fill="#009ee0"/><path d="M163.12,246.93l-23.61,41.56S135.8,295,143.76,293s52-14,52-14a18.55,18.55,0,0,0,8.52-6.16c3.55-4.68,24.93-46.83,24.93-46.83s2.78-5-3.87-3.09-52.55,15.92-52.55,15.92A18.12,18.12,0,0,0,163.12,246.93Z" fill="#009ee0"/><path d="M127.19,314.45l-26.23,46s-3.71,6.48,4.25,4.47,52-13.18,52-13.18a18.55,18.55,0,0,0,8.52-6.16c3.55-4.68,26-49.54,26-49.54s2.77-5-3.88-3.09-51,13.41-51,13.41A19.16,19.16,0,0,0,127.19,314.45Z" fill="#e2001a"/><path d="M206.07,292.51l-22.6,47.85s-3.71,6.48,4.24,4.48,58.43-14.32,58.43-14.32a18.43,18.43,0,0,0,8.51-6.15c3.56-4.68,24.14-51.79,24.14-51.79s2.78-5-3.87-3.08-59.16,14.92-59.16,14.92A17.42,17.42,0,0,0,206.07,292.51Z" fill="#ffed00"/><path d="M243.24,222.75l-23,43.86s-3.7,6.48,4.25,4.47,55.88-13.76,55.88-13.76a18.43,18.43,0,0,0,8.51-6.15c3.56-4.68,23-49.81,23-49.81s2.78-5-3.87-3.09-55.12,16.4-55.12,16.4A17.42,17.42,0,0,0,243.24,222.75Z" fill="#ec7413"/><path d="M296,267.31l-22.19,48.47s-3.7,6.48,4.25,4.48,66.37-16.9,66.37-16.9a18.43,18.43,0,0,0,8.51-6.15c3.56-4.68,20.57-53.31,20.57-53.31s1.86-4.69-3.87-3.09c-6.65,1.86-63.94,18.41-63.94,18.41A15.23,15.23,0,0,0,296,267.31Z" fill="#fff"/><path d="M326.92,197.8l-18.7,42.46s-3.7,6.48,4.25,4.47,58.89-16.89,58.89-16.89a18.5,18.5,0,0,0,8.51-6.16c3.56-4.68,20.49-47.76,20.49-47.76s1.85-4.68-3.88-3.08c-6.65,1.85-59.86,18.88-59.86,18.88A15.19,15.19,0,0,0,326.92,197.8Z" fill="#6ab023"/><path d="M357.9,133.42l-15.73,36.46s-3.7,6.48,4.25,4.47S402,157.46,402,157.46a18.5,18.5,0,0,0,8.51-6.16c3.56-4.68,17.68-41.21,17.68-41.21s1.85-4.69-3.87-3.09c-6.66,1.86-56.71,18.33-56.71,18.33A15.21,15.21,0,0,0,357.9,133.42Z" fill="#e2001a"/><path d="M514.71,243.77s4.61-4.45,8,.42c2.57,3.73,33.68,54.16,33.68,54.16s3.15,5.24-.21,8.8-46,53.37-46,53.37a4,4,0,0,1-5.66-.42c-2.73-2.93-39-54.7-39-54.7s-2.72-4.83.84-8.6S514.71,243.77,514.71,243.77Z" fill="#ec7413"/><path d="M564.73,318.51s4.62-4.45,8,.42c2.57,3.74,32,52.33,32,52.33s3.14,5.24-.21,8.8S557.86,434,557.86,434a4,4,0,0,1-5.66-.42c-2.72-2.93-36.16-54-36.16-54s-2.72-4.82.84-8.59S564.73,318.51,564.73,318.51Z" fill="#6ab023"/><path d="M495.39,395.52s4.46-4.61,8,.15c2.69,3.65,34.23,49.68,34.23,49.68s3.32,5.13.09,8.81l-48.27,54.91a4,4,0,0,1-5.67-.22c-2.83-2.84-36.88-50.16-36.88-50.16s-2.88-4.73.55-8.62S495.39,395.52,495.39,395.52Z" fill="#009ee0"/><path d="M427.54,470.5s4.45-4.61,8,.14c2.7,3.65,36.45,49,36.45,49s3.33,5.13.1,8.81-51.25,57.2-51.25,57.2a4,4,0,0,1-5.67-.23c-2.83-2.84-39.46-48.89-39.46-48.89s-2.88-4.72.55-8.61S427.54,470.5,427.54,470.5Z" fill="#ffed00"/><path d="M371.55,400.21s4.46-4.61,8,.15c2.7,3.65,39.11,51.87,39.11,51.87s3.32,5.14.09,8.81-52.91,57.25-52.91,57.25a4,4,0,0,1-5.67-.22c-2.83-2.84-41.88-52.82-41.88-52.82s-2.89-4.73.54-8.62S371.55,400.21,371.55,400.21Z" fill="#6ab023"/><path d="M442.86,110.44s2.17-4.2,4.73-.58c1.84,2.61,36.41,58.88,36.41,58.88a15.51,15.51,0,0,1,.67,11.24c-2,6.09-17.46,41.28-17.46,41.28s-2.3,3.25-5.41-1.22S425,160.76,425,160.76a10.78,10.78,0,0,1-.27-8.39C426.47,147.76,442.86,110.44,442.86,110.44Z" fill="#ffed00"/><path d="M415.56,173.46s2.17-4.19,4.72-.57c1.85,2.61,39.62,60.55,39.62,60.55a15.49,15.49,0,0,1,.68,11.24c-2,6.09-18.54,46.7-18.54,46.7s-2.3,3.25-5.42-1.22-40.06-58.75-40.06-58.75a10.78,10.78,0,0,1-.27-8.39C398.05,218.42,415.56,173.46,415.56,173.46Z" fill="#ec7413"/><path d="M385.55,245.47s2.18-4.19,4.73-.57c1.84,2.61,40.93,60.55,40.93,60.55a15.49,15.49,0,0,1,.68,11.24c-2,6.09-21.8,51.57-21.8,51.57s-2.3,3.25-5.41-1.22-40.61-58.74-40.61-58.74a10.8,10.8,0,0,1-.27-8.4C365.56,295.3,385.55,245.47,385.55,245.47Z" fill="#009ee0"/><path d="M274.15,339.8s-3.64-5.41,2.56-6.95c4.84-1.2,65.23-16.59,65.23-16.59s5.93-1.65,7.8,1c1.59,2.25,40.28,58.29,40.28,58.29s6.4,8.56-.86,10.35c-6.27,1.55-62.11,13.47-62.11,13.47s-6.61,1.79-9.22-1.42C315.55,395.14,274.15,339.8,274.15,339.8Z" fill="#ffed00"/><path d="M185.88,362.93s-3.46-5,2.42-6.45c4.6-1.12,60.62-14.08,60.62-14.08s5.64-1.53,7.41.92c1.51,2.09,41.76,54.16,41.76,54.16s6.08,8-.81,9.62c-6,1.44-58.46,12.88-58.46,12.88s-6.28,1.66-8.76-1.32C227.9,416.05,185.88,362.93,185.88,362.93Z" fill="#6ab023"/><path d="M101.65,382.49s-3.45-5,2.43-6.45c4.59-1.12,56.24-14.34,56.24-14.34s5.63-1.53,7.41.93c1.51,2.08,41.75,54.7,41.75,54.7s6.08,7.95-.81,9.61c-6,1.45-54.36,12.25-54.36,12.25s-6.28,1.67-8.75-1.32C143.39,435.27,101.65,382.49,101.65,382.49Z" fill="#ec7413"/><path d="M262.18,446.7l36.06,15.36s5,2.24,7.42,5.52,41.06,51.59,41.06,51.59,4.77,6.27-2.07,3.28c-5.66-2.49-40.89-19.33-40.89-19.33a15.14,15.14,0,0,1-5.69-4.48l-39-49.35S255.25,443.57,262.18,446.7Z" fill="#e2001a"/><path d="M319.21,520.7l36.06,15.35s5,2.25,7.42,5.52,37.62,46.21,37.62,46.21,4.77,6.27-2.07,3.28c-5.67-2.48-42-20-42-20a15,15,0,0,1-5.69-4.49c-2.59-3.28-34.4-43.31-34.4-43.31S312.28,517.57,319.21,520.7Z" fill="#009ee0"/><path d="M263,492.42l36.06,18.2s5,2.24,7.41,5.52,31.42,41.52,31.42,41.52,4.77,6.28-2.07,3.28c-5.66-2.48-36-17.18-36-17.18a15.11,15.11,0,0,1-5.69-4.49C291.51,536,259.89,495,259.89,495S256.06,489.29,263,492.42Z" fill="#fff"/><path d="M214.07,469.59,244,484.25s5,2.24,7.42,5.52,30.9,41,30.9,41,4.76,6.27-2.07,3.28c-5.67-2.48-30.13-14.37-30.13-14.37a14.94,14.94,0,0,1-5.69-4.48c-2.59-3.28-33.45-43-33.45-43S207.14,466.46,214.07,469.59Z" fill="#ffed00"/><path d="M400.14,393l31.64,43.21s4.07,5.16,9.21-.47c4.5-4.94,47.92-53.83,47.92-53.83s4-4.49,0-10.16-35.17-51.7-35.17-51.7-4.54-5.71-9.21-1.42c-3.82,3.5-13.93,13.46-13.93,13.46A14.16,14.16,0,0,0,429,335.2c-.48,1.42-13.23,35.41-13.23,35.41S411.24,384.78,400.14,393Z" fill="#fff"/><path d="M240.66,470.75a26.69,26.69,0,0,0,8.73,7.34c5.48,2.78,36.6,17.55,36.6,17.55s6.5,2.79,1.58-3.16-38.73-48.76-38.73-48.76-3-4.18-6.41-5.66-19.69-8.27-19.69-8.27a12.61,12.61,0,0,0-6.13-.37,58.55,58.55,0,0,0-6.41,1.67s-1.48.84-.84,1.58S240.66,470.75,240.66,470.75Z" fill="#6ab023"/><path d="M197.32,454.44a24.24,24.24,0,0,0,6.78,5.21c3.71,1.71,24.41,10.56,24.41,10.56s7.61,2.46,3.43-2.68-26.53-33.39-26.53-33.39-1.86-2-3.43-1.64-17.21,3.56-17.21,3.56-1.51.76-1,1.58S197.32,454.44,197.32,454.44Z" fill="#009ee0"/></g></g></svg>